#!OML:ASF F:\VICON\USERDATA\INSTALL\rory3\rory3.ASF
:FULLY-SPECIFIED
:DEGREES
3606
root -2.25576 17.6651 -4.24079 4.87309 50.19 2.21909
lowerback 6.42234 1.34458 -0.211885
upperback 1.18156 1.84376 1.89596
thorax -2.45053 0.933432 1.91579
lowerneck -17.9171 6.85672 -3.03043
upperneck 35.605 12.3877 -0.471391
head 15.3412 4.97817 2.60629
rclavicle 5.84427e-014 -7.95139e-015
rhumerus -13.9211 15.0446 -83.2188
rradius 49.2747
rwrist 21.4197
rhand -29.5815 -3.5116
rfingers 7.12502
rthumb -2.91327 -33.4714
lclavicle 5.84427e-014 -7.95139e-015
lhumerus -12.265 -4.40551 77.6727
lradius 39.7693
lwrist -4.43837
lhand -20.022 34.7889
lfingers 7.12502
lthumb 6.31855 -1015.33
rfemur -23.0247 1.68241 12.7461
rtibia 35.0678
rfoot -11.3144 0.505034
rtoes 8.93809
lfemur -5.50888 -5.87151 -12.7362
ltibia 26.5159
lfoot -14.933 -0.864768
ltoes -22.472
3607
root -2.30577 17.6662 -4.1721 5.34281 50.7543 2.61721
lowerback 6.32935 1.37709 -0.220076
upperback 1.21537 1.88619 1.91738
thorax -2.36631 0.954424 1.94144
lowerneck -17.7519 7.05306 -3.08805
upperneck 35.7213 12.7814 -0.593676
head 15.3622 5.12531 2.63193
rclavicle -2.95195e-014 -3.33958e-014
rhumerus -12.6694 18.074 -83.318
rradius 50.029
rwrist 21.388
rhand -29.2934 -3.14083
rfingers 7.12502
rthumb -2.6351 -33.1043
lclavicle -2.95195e-014 -3.33958e-014
lhumerus -11.2491 -3.115 77.0679
lradius 39.5288
lwrist -3.95347
lhand -19.9657 34.6465
lfingers 7.12502
lthumb 6.37297 -1015.47
rfemur -23.09 1.32897 12.7908
rtibia 35.1896
rfoot -11.5087 0.423055
rtoes 7.92792
lfemur -6.00229 -5.59839 -12.6468
ltibia 26.7255
lfoot -14.4963 -1.16611
ltoes -24.1891
3608
root -2.3569 17.6782 -4.10218 5.8119 51.3867 2.84224
lowerback 6.1216 1.41635 -0.101083
upperback 1.18219 1.94431 1.90649
thorax -2.28239 0.982259 1.86308
lowerneck -17.6248 7.23533 -2.98926
upperneck 35.8391 13.1 -0.711344
head 15.4061 5.25986 2.62407
rclavicle 1.2921e-014 -7.15625e-015
rhumerus -11.5127 20.6916 -83.47
rradius 50.9044
rwrist 21.8817
rhand -28.8325 -2.98002
rfingers 7.12502
rthumb -2.18997 -32.9485
lclavicle 1.2921e-014 -7.15625e-015
lhumerus -10.2556 -2.36039 76.349
lradius 39.2528
lwrist -3.19308
lhand -20.0426 34.7593
lfingers 7.12502
lthumb 6.29869 -1015.35
rfemur -23.2996 1.14313 12.9069
rtibia 35.2675
rfoot -11.7149 0.304823
rtoes 8.44339
lfemur -6.57494 -5.72145 -12.3689
ltibia 26.8133
lfoot -13.9633 -1.60084
ltoes -23.9118
3609
root -2.40684 17.6922 -4.03567 6.03448 52.0748 2.93073
lowerback 5.99979 1.45877 0.120486
upperback 1.21415 2.01469 1.94236
thorax -2.17763 1.01592 1.7735
lowerneck -17.552 7.33763 -3.02783
upperneck 35.9706 13.3244 -0.761569
head 15.4533 5.34447 2.65267
rclavicle 8.34896e-015 -2.22639e-014
rhumerus -10.299 23.1627 -83.4213
rradius 51.7443
rwrist 22.6414
rhand -28.2256 -2.82303
rfingers 7.12502
rthumb -1.60384 -32.7967
lclavicle 8.34896e-015 -2.22639e-014
lhumerus -9.23808 -1.7935 75.7352
lradius 39.0462
lwrist -2.49889
lhand -20.0685 35.0295
lfingers 7.12502
lthumb 6.2737 -1015.08
rfemur -23.3167 0.957113 13.1204
rtibia 35.2715
rfoot -11.9185 0.0858504
rtoes 8.72378
lfemur -7.0249 -6.02318 -12.0363
ltibia 26.9119
lfoot -13.4171 -1.84711
ltoes -24.3192
3610
root -2.45878 17.704 -3.96964 6.23224 52.7421 3.13185
lowerback 5.90797 1.4992 0.0968927
upperback 1.34461 2.07005 2.11191
thorax -2.00097 1.0442 1.96145
lowerneck -17.471 7.31029 -3.22811
upperneck 36.0956 13.4317 -0.872306
head 15.4923 5.35067 2.66146
rclavicle 1.51076e-014 3.26007e-014
rhumerus -8.90876 25.7376 -83.0035
rradius 52.5482
rwrist 23.0315
rhand -27.8104 -2.33307
rfingers 7.12502
rthumb -1.20281 -32.3094
lclavicle 1.51076e-014 3.26007e-014
lhumerus -8.16575 -1.17764 75.3092
lradius 38.8278
lwrist -1.85077
lhand -20.0374 34.7494
lfingers 7.12502
lthumb 6.30368 -1015.36
rfemur -23.1831 0.615673 13.3053
rtibia 35.222
rfoot -12.0752 -0.0664063
rtoes 8.68174
lfemur -7.36009 -6.1911 -11.7566
ltibia 27.0235
lfoot -12.9261 -2.2797
ltoes -24.4616
3611
root -2.5109 17.7154 -3.90262 6.3173 53.4487 3.13053
lowerback 5.84299 1.51314 0.295093
upperback 1.44621 2.10329 2.25203
thorax -1.85954 1.06049 1.99535
lowerneck -17.4826 7.22968 -3.34026
upperneck 36.2108 13.4429 -1.01806
head 15.5611 5.31828 2.63083
rclavicle -1.16885e-013 0
rhumerus -7.44609 28.0202 -82.6282
rradius 53.2994
rwrist 23.2899
rhand -27.2974 -2.11115
rfingers 7.12502
rthumb -0.707297 -32.0897
lclavicle -1.16885e-013 0
lhumerus -7.02413 -0.569196 74.7646
lradius 38.4807
lwrist -1.32509
lhand -20.7225 34.5238
lfingers 7.12502
lthumb 5.64229 -1015.57
rfemur -23.0769 0.29224 13.6459
rtibia 35.1602
rfoot -12.2048 -0.394584
rtoes 9.03594
lfemur -7.78681 -6.29285 -11.3317
ltibia 27.1596
lfoot -12.3871 -2.66005
ltoes -24.7842
